<mxfile host="app.diagrams.net" modified="2023-11-15T10:34:18.741Z" agent="Mozilla/5.0 (Macintosh; Intel Mac OS X 10_15_7) AppleWebKit/537.36 (KHTML, like Gecko) Chrome/119.0.0.0 Safari/537.36" etag="i5lYdYlta9rWF8ynScNP" version="22.1.1" type="device">
  <diagram name="Trang-1" id="SUtpHRZysYcwdnRIezqp">
    <mxGraphModel dx="1732" dy="852" grid="1" gridSize="10" guides="1" tooltips="1" connect="1" arrows="1" fold="1" page="1" pageScale="1" pageWidth="827" pageHeight="1169" math="0" shadow="0">
      <root>
        <mxCell id="0" />
        <mxCell id="1" parent="0" />
        <mxCell id="XliUAWEANQiwk1mUZGUS-1" value="Quản Trị Viên" style="shape=umlActor;verticalLabelPosition=bottom;verticalAlign=top;html=1;outlineConnect=0;" parent="1" vertex="1">
          <mxGeometry x="950" y="450" width="60" height="90" as="geometry" />
        </mxCell>
        <mxCell id="sksLSkYZdCt6uy0x5Zyz-1" value="Giảng Viên" style="shape=umlActor;verticalLabelPosition=bottom;verticalAlign=top;html=1;outlineConnect=0;" parent="1" vertex="1">
          <mxGeometry x="-80" y="230" width="60" height="90" as="geometry" />
        </mxCell>
        <mxCell id="sksLSkYZdCt6uy0x5Zyz-2" value="Sinh Viên" style="shape=umlActor;verticalLabelPosition=bottom;verticalAlign=top;html=1;outlineConnect=0;" parent="1" vertex="1">
          <mxGeometry x="-90" y="690" width="60" height="90" as="geometry" />
        </mxCell>
        <mxCell id="sksLSkYZdCt6uy0x5Zyz-5" value="" style="rounded=0;whiteSpace=wrap;html=1;fillColor=#d5e8d4;strokeColor=#82b366;" parent="1" vertex="1">
          <mxGeometry x="60" y="100" width="810" height="900" as="geometry" />
        </mxCell>
        <mxCell id="sksLSkYZdCt6uy0x5Zyz-9" value="Đăng Xuất" style="ellipse;whiteSpace=wrap;html=1;fillColor=#dae8fc;strokeColor=#6c8ebf;" parent="1" vertex="1">
          <mxGeometry x="170" y="210" width="120" height="80" as="geometry" />
        </mxCell>
        <mxCell id="sksLSkYZdCt6uy0x5Zyz-10" value="" style="endArrow=classic;html=1;rounded=0;entryX=0.038;entryY=0.666;entryDx=0;entryDy=0;entryPerimeter=0;startArrow=none;startFill=0;endFill=1;" parent="1" source="sksLSkYZdCt6uy0x5Zyz-2" target="sksLSkYZdCt6uy0x5Zyz-9" edge="1">
          <mxGeometry width="50" height="50" relative="1" as="geometry">
            <mxPoint x="-20" y="520" as="sourcePoint" />
            <mxPoint x="340" y="580" as="targetPoint" />
          </mxGeometry>
        </mxCell>
        <mxCell id="sksLSkYZdCt6uy0x5Zyz-12" value="" style="endArrow=classic;html=1;rounded=0;entryX=0;entryY=0.5;entryDx=0;entryDy=0;endFill=1;" parent="1" source="sksLSkYZdCt6uy0x5Zyz-1" target="sksLSkYZdCt6uy0x5Zyz-9" edge="1">
          <mxGeometry width="50" height="50" relative="1" as="geometry">
            <mxPoint x="-20" y="720" as="sourcePoint" />
            <mxPoint x="168" y="248" as="targetPoint" />
          </mxGeometry>
        </mxCell>
        <mxCell id="sksLSkYZdCt6uy0x5Zyz-14" value="" style="endArrow=none;html=1;rounded=0;entryX=0;entryY=0.3333333333333333;entryDx=0;entryDy=0;entryPerimeter=0;startArrow=classic;startFill=1;" parent="1" source="sksLSkYZdCt6uy0x5Zyz-9" target="XliUAWEANQiwk1mUZGUS-1" edge="1">
          <mxGeometry width="50" height="50" relative="1" as="geometry">
            <mxPoint x="430" y="500" as="sourcePoint" />
            <mxPoint x="480" y="450" as="targetPoint" />
          </mxGeometry>
        </mxCell>
        <mxCell id="sksLSkYZdCt6uy0x5Zyz-18" value="Tra Cứu Thông Tin" style="ellipse;whiteSpace=wrap;html=1;fillColor=#dae8fc;strokeColor=#6c8ebf;" parent="1" vertex="1">
          <mxGeometry x="707" y="840" width="120" height="80" as="geometry" />
        </mxCell>
        <mxCell id="sksLSkYZdCt6uy0x5Zyz-19" value="Quản lý câu hỏi" style="ellipse;whiteSpace=wrap;html=1;fillColor=#dae8fc;strokeColor=#6c8ebf;" parent="1" vertex="1">
          <mxGeometry x="170" y="330" width="120" height="80" as="geometry" />
        </mxCell>
        <mxCell id="sksLSkYZdCt6uy0x5Zyz-20" value="Đăng Nhập" style="ellipse;whiteSpace=wrap;html=1;fillColor=#dae8fc;strokeColor=#6c8ebf;" parent="1" vertex="1">
          <mxGeometry x="390" y="560" width="120" height="80" as="geometry" />
        </mxCell>
        <mxCell id="sksLSkYZdCt6uy0x5Zyz-22" value="" style="endArrow=classic;html=1;rounded=0;entryX=0;entryY=0.5;entryDx=0;entryDy=0;exitX=1;exitY=0.3333333333333333;exitDx=0;exitDy=0;exitPerimeter=0;endFill=1;" parent="1" source="sksLSkYZdCt6uy0x5Zyz-1" target="sksLSkYZdCt6uy0x5Zyz-19" edge="1">
          <mxGeometry width="50" height="50" relative="1" as="geometry">
            <mxPoint x="310" y="610" as="sourcePoint" />
            <mxPoint x="360" y="560" as="targetPoint" />
          </mxGeometry>
        </mxCell>
        <mxCell id="sksLSkYZdCt6uy0x5Zyz-23" value="" style="endArrow=none;dashed=1;html=1;dashPattern=1 3;strokeWidth=2;rounded=0;entryX=1;entryY=1;entryDx=0;entryDy=0;endFill=0;startArrow=classic;startFill=1;" parent="1" source="sksLSkYZdCt6uy0x5Zyz-20" target="sksLSkYZdCt6uy0x5Zyz-19" edge="1">
          <mxGeometry width="50" height="50" relative="1" as="geometry">
            <mxPoint x="310" y="610" as="sourcePoint" />
            <mxPoint x="360" y="560" as="targetPoint" />
          </mxGeometry>
        </mxCell>
        <mxCell id="sksLSkYZdCt6uy0x5Zyz-24" value="&amp;lt;&amp;lt;include&amp;gt;&amp;gt;" style="edgeLabel;html=1;align=center;verticalAlign=middle;resizable=0;points=[];" parent="sksLSkYZdCt6uy0x5Zyz-23" vertex="1" connectable="0">
          <mxGeometry x="0.229" y="2" relative="1" as="geometry">
            <mxPoint as="offset" />
          </mxGeometry>
        </mxCell>
        <mxCell id="sksLSkYZdCt6uy0x5Zyz-26" value="Thi Trắc Nghiệm" style="ellipse;whiteSpace=wrap;html=1;fillColor=#dae8fc;strokeColor=#6c8ebf;" parent="1" vertex="1">
          <mxGeometry x="150" y="480" width="120" height="80" as="geometry" />
        </mxCell>
        <mxCell id="sksLSkYZdCt6uy0x5Zyz-27" value="" style="endArrow=classic;html=1;rounded=0;exitX=1;exitY=0.3333333333333333;exitDx=0;exitDy=0;exitPerimeter=0;entryX=0;entryY=0.5;entryDx=0;entryDy=0;endFill=1;" parent="1" source="sksLSkYZdCt6uy0x5Zyz-2" target="sksLSkYZdCt6uy0x5Zyz-26" edge="1">
          <mxGeometry width="50" height="50" relative="1" as="geometry">
            <mxPoint x="280" y="540" as="sourcePoint" />
            <mxPoint x="330" y="490" as="targetPoint" />
          </mxGeometry>
        </mxCell>
        <mxCell id="sksLSkYZdCt6uy0x5Zyz-28" value="Xem Điểm" style="ellipse;whiteSpace=wrap;html=1;fillColor=#dae8fc;strokeColor=#6c8ebf;" parent="1" vertex="1">
          <mxGeometry x="150" y="600" width="120" height="80" as="geometry" />
        </mxCell>
        <mxCell id="sksLSkYZdCt6uy0x5Zyz-29" value="" style="endArrow=classic;html=1;rounded=0;entryX=0;entryY=0.5;entryDx=0;entryDy=0;endFill=1;" parent="1" source="sksLSkYZdCt6uy0x5Zyz-2" target="sksLSkYZdCt6uy0x5Zyz-28" edge="1">
          <mxGeometry width="50" height="50" relative="1" as="geometry">
            <mxPoint x="360" y="620" as="sourcePoint" />
            <mxPoint x="410" y="570" as="targetPoint" />
          </mxGeometry>
        </mxCell>
        <mxCell id="sksLSkYZdCt6uy0x5Zyz-30" value="" style="endArrow=none;dashed=1;html=1;dashPattern=1 3;strokeWidth=2;rounded=0;endFill=0;startArrow=classic;startFill=1;entryX=1;entryY=0.5;entryDx=0;entryDy=0;" parent="1" source="sksLSkYZdCt6uy0x5Zyz-20" target="sksLSkYZdCt6uy0x5Zyz-28" edge="1">
          <mxGeometry width="50" height="50" relative="1" as="geometry">
            <mxPoint x="427" y="818" as="sourcePoint" />
            <mxPoint x="232" y="778" as="targetPoint" />
          </mxGeometry>
        </mxCell>
        <mxCell id="sksLSkYZdCt6uy0x5Zyz-31" value="&amp;lt;&amp;lt;include&amp;gt;&amp;gt;" style="edgeLabel;html=1;align=center;verticalAlign=middle;resizable=0;points=[];" parent="sksLSkYZdCt6uy0x5Zyz-30" vertex="1" connectable="0">
          <mxGeometry x="0.229" y="2" relative="1" as="geometry">
            <mxPoint as="offset" />
          </mxGeometry>
        </mxCell>
        <mxCell id="sksLSkYZdCt6uy0x5Zyz-32" value="" style="endArrow=none;dashed=1;html=1;dashPattern=1 3;strokeWidth=2;rounded=0;entryX=0.95;entryY=0.696;entryDx=0;entryDy=0;endFill=0;startArrow=classic;startFill=1;entryPerimeter=0;exitX=0.058;exitY=0.238;exitDx=0;exitDy=0;exitPerimeter=0;" parent="1" source="sksLSkYZdCt6uy0x5Zyz-20" target="sksLSkYZdCt6uy0x5Zyz-26" edge="1">
          <mxGeometry width="50" height="50" relative="1" as="geometry">
            <mxPoint x="490" y="620" as="sourcePoint" />
            <mxPoint x="242" y="788" as="targetPoint" />
          </mxGeometry>
        </mxCell>
        <mxCell id="sksLSkYZdCt6uy0x5Zyz-33" value="&amp;lt;&amp;lt;include&amp;gt;&amp;gt;" style="edgeLabel;html=1;align=center;verticalAlign=middle;resizable=0;points=[];" parent="sksLSkYZdCt6uy0x5Zyz-32" vertex="1" connectable="0">
          <mxGeometry x="0.229" y="2" relative="1" as="geometry">
            <mxPoint as="offset" />
          </mxGeometry>
        </mxCell>
        <mxCell id="sksLSkYZdCt6uy0x5Zyz-35" value="" style="endArrow=none;html=1;rounded=0;exitX=1;exitY=0.5;exitDx=0;exitDy=0;endFill=0;startArrow=classic;startFill=1;" parent="1" source="sksLSkYZdCt6uy0x5Zyz-19" target="XliUAWEANQiwk1mUZGUS-1" edge="1">
          <mxGeometry width="50" height="50" relative="1" as="geometry">
            <mxPoint x="700" y="660" as="sourcePoint" />
            <mxPoint x="750" y="610" as="targetPoint" />
          </mxGeometry>
        </mxCell>
        <mxCell id="sksLSkYZdCt6uy0x5Zyz-36" value="Quản Lý Điểm" style="ellipse;whiteSpace=wrap;html=1;fillColor=#dae8fc;strokeColor=#6c8ebf;" parent="1" vertex="1">
          <mxGeometry x="680" y="460" width="120" height="80" as="geometry" />
        </mxCell>
        <mxCell id="sksLSkYZdCt6uy0x5Zyz-40" value="" style="endArrow=none;html=1;rounded=0;entryX=0;entryY=1;entryDx=0;entryDy=0;entryPerimeter=0;exitX=1;exitY=0.5;exitDx=0;exitDy=0;endFill=0;startArrow=classic;startFill=1;" parent="1" source="sksLSkYZdCt6uy0x5Zyz-36" target="XliUAWEANQiwk1mUZGUS-1" edge="1">
          <mxGeometry width="50" height="50" relative="1" as="geometry">
            <mxPoint x="610" y="650" as="sourcePoint" />
            <mxPoint x="660" y="600" as="targetPoint" />
          </mxGeometry>
        </mxCell>
        <mxCell id="sksLSkYZdCt6uy0x5Zyz-41" value="Quản Lý Môn Học" style="ellipse;whiteSpace=wrap;html=1;fillColor=#dae8fc;strokeColor=#6c8ebf;" parent="1" vertex="1">
          <mxGeometry x="700" y="310" width="120" height="80" as="geometry" />
        </mxCell>
        <mxCell id="sksLSkYZdCt6uy0x5Zyz-42" value="" style="endArrow=classic;html=1;rounded=0;entryX=1;entryY=0.5;entryDx=0;entryDy=0;" parent="1" source="XliUAWEANQiwk1mUZGUS-1" target="sksLSkYZdCt6uy0x5Zyz-41" edge="1">
          <mxGeometry width="50" height="50" relative="1" as="geometry">
            <mxPoint x="420" y="640" as="sourcePoint" />
            <mxPoint x="470" y="590" as="targetPoint" />
          </mxGeometry>
        </mxCell>
        <mxCell id="sksLSkYZdCt6uy0x5Zyz-43" value="Quản Lý Đề Thi" style="ellipse;whiteSpace=wrap;html=1;fillColor=#dae8fc;strokeColor=#6c8ebf;" parent="1" vertex="1">
          <mxGeometry x="680" y="560" width="120" height="80" as="geometry" />
        </mxCell>
        <mxCell id="sksLSkYZdCt6uy0x5Zyz-44" value="Quản Lý Giáo Viên" style="ellipse;whiteSpace=wrap;html=1;fillColor=#dae8fc;strokeColor=#6c8ebf;" parent="1" vertex="1">
          <mxGeometry x="680" y="670" width="120" height="80" as="geometry" />
        </mxCell>
        <mxCell id="sksLSkYZdCt6uy0x5Zyz-45" value="" style="endArrow=classic;html=1;rounded=0;entryX=1;entryY=0.5;entryDx=0;entryDy=0;" parent="1" source="XliUAWEANQiwk1mUZGUS-1" target="sksLSkYZdCt6uy0x5Zyz-43" edge="1">
          <mxGeometry width="50" height="50" relative="1" as="geometry">
            <mxPoint x="590" y="550" as="sourcePoint" />
            <mxPoint x="640" y="500" as="targetPoint" />
          </mxGeometry>
        </mxCell>
        <mxCell id="sksLSkYZdCt6uy0x5Zyz-46" value="" style="endArrow=classic;html=1;rounded=0;entryX=1;entryY=0.5;entryDx=0;entryDy=0;" parent="1" source="XliUAWEANQiwk1mUZGUS-1" target="sksLSkYZdCt6uy0x5Zyz-44" edge="1">
          <mxGeometry width="50" height="50" relative="1" as="geometry">
            <mxPoint x="590" y="550" as="sourcePoint" />
            <mxPoint x="640" y="500" as="targetPoint" />
          </mxGeometry>
        </mxCell>
        <mxCell id="sksLSkYZdCt6uy0x5Zyz-47" value="" style="endArrow=none;dashed=1;html=1;rounded=0;exitX=1;exitY=0;exitDx=0;exitDy=0;entryX=0;entryY=0.5;entryDx=0;entryDy=0;endFill=0;startArrow=classic;startFill=1;" parent="1" source="sksLSkYZdCt6uy0x5Zyz-20" target="sksLSkYZdCt6uy0x5Zyz-41" edge="1">
          <mxGeometry width="50" height="50" relative="1" as="geometry">
            <mxPoint x="590" y="630" as="sourcePoint" />
            <mxPoint x="640" y="580" as="targetPoint" />
          </mxGeometry>
        </mxCell>
        <mxCell id="sksLSkYZdCt6uy0x5Zyz-48" value="&amp;lt;&amp;lt;include&amp;gt;&amp;gt;" style="edgeLabel;html=1;align=center;verticalAlign=middle;resizable=0;points=[];" parent="sksLSkYZdCt6uy0x5Zyz-47" vertex="1" connectable="0">
          <mxGeometry x="-0.148" y="2" relative="1" as="geometry">
            <mxPoint as="offset" />
          </mxGeometry>
        </mxCell>
        <mxCell id="sksLSkYZdCt6uy0x5Zyz-49" value="" style="endArrow=none;dashed=1;html=1;rounded=0;exitX=1;exitY=0;exitDx=0;exitDy=0;entryX=0;entryY=0.5;entryDx=0;entryDy=0;endFill=0;startArrow=classic;startFill=1;" parent="1" target="sksLSkYZdCt6uy0x5Zyz-36" edge="1">
          <mxGeometry width="50" height="50" relative="1" as="geometry">
            <mxPoint x="502" y="582" as="sourcePoint" />
            <mxPoint x="690" y="420" as="targetPoint" />
          </mxGeometry>
        </mxCell>
        <mxCell id="sksLSkYZdCt6uy0x5Zyz-50" value="&amp;lt;&amp;lt;include&amp;gt;&amp;gt;" style="edgeLabel;html=1;align=center;verticalAlign=middle;resizable=0;points=[];" parent="sksLSkYZdCt6uy0x5Zyz-49" vertex="1" connectable="0">
          <mxGeometry x="-0.148" y="2" relative="1" as="geometry">
            <mxPoint as="offset" />
          </mxGeometry>
        </mxCell>
        <mxCell id="sksLSkYZdCt6uy0x5Zyz-51" value="" style="endArrow=none;dashed=1;html=1;rounded=0;exitX=1;exitY=0.5;exitDx=0;exitDy=0;entryX=0;entryY=0.5;entryDx=0;entryDy=0;endFill=0;startArrow=classic;startFill=1;" parent="1" source="sksLSkYZdCt6uy0x5Zyz-20" target="sksLSkYZdCt6uy0x5Zyz-43" edge="1">
          <mxGeometry width="50" height="50" relative="1" as="geometry">
            <mxPoint x="512" y="592" as="sourcePoint" />
            <mxPoint x="700" y="430" as="targetPoint" />
          </mxGeometry>
        </mxCell>
        <mxCell id="sksLSkYZdCt6uy0x5Zyz-52" value="&amp;lt;&amp;lt;include&amp;gt;&amp;gt;" style="edgeLabel;html=1;align=center;verticalAlign=middle;resizable=0;points=[];" parent="sksLSkYZdCt6uy0x5Zyz-51" vertex="1" connectable="0">
          <mxGeometry x="-0.148" y="2" relative="1" as="geometry">
            <mxPoint as="offset" />
          </mxGeometry>
        </mxCell>
        <mxCell id="sksLSkYZdCt6uy0x5Zyz-53" value="" style="endArrow=none;dashed=1;html=1;rounded=0;exitX=0.94;exitY=0.733;exitDx=0;exitDy=0;entryX=0;entryY=0.5;entryDx=0;entryDy=0;endFill=0;exitPerimeter=0;startArrow=classic;startFill=1;" parent="1" source="sksLSkYZdCt6uy0x5Zyz-20" target="sksLSkYZdCt6uy0x5Zyz-44" edge="1">
          <mxGeometry width="50" height="50" relative="1" as="geometry">
            <mxPoint x="522" y="602" as="sourcePoint" />
            <mxPoint x="710" y="440" as="targetPoint" />
          </mxGeometry>
        </mxCell>
        <mxCell id="sksLSkYZdCt6uy0x5Zyz-54" value="&amp;lt;&amp;lt;include&amp;gt;&amp;gt;" style="edgeLabel;html=1;align=center;verticalAlign=middle;resizable=0;points=[];" parent="sksLSkYZdCt6uy0x5Zyz-53" vertex="1" connectable="0">
          <mxGeometry x="-0.148" y="2" relative="1" as="geometry">
            <mxPoint as="offset" />
          </mxGeometry>
        </mxCell>
        <mxCell id="sksLSkYZdCt6uy0x5Zyz-56" value="" style="endArrow=classic;dashed=1;html=1;rounded=0;entryX=0;entryY=1;entryDx=0;entryDy=0;exitX=1;exitY=0.5;exitDx=0;exitDy=0;endFill=1;" parent="1" source="sksLSkYZdCt6uy0x5Zyz-57" target="sksLSkYZdCt6uy0x5Zyz-44" edge="1">
          <mxGeometry width="50" height="50" relative="1" as="geometry">
            <mxPoint x="560" y="720" as="sourcePoint" />
            <mxPoint x="610" y="670" as="targetPoint" />
          </mxGeometry>
        </mxCell>
        <mxCell id="sksLSkYZdCt6uy0x5Zyz-60" value="&amp;lt;&amp;lt;extend&amp;gt;&amp;gt;" style="edgeLabel;html=1;align=center;verticalAlign=middle;resizable=0;points=[];" parent="sksLSkYZdCt6uy0x5Zyz-56" vertex="1" connectable="0">
          <mxGeometry x="-0.2496" y="-2" relative="1" as="geometry">
            <mxPoint as="offset" />
          </mxGeometry>
        </mxCell>
        <mxCell id="sksLSkYZdCt6uy0x5Zyz-57" value="Thống Kê Sinh Viên" style="ellipse;whiteSpace=wrap;html=1;fillColor=#dae8fc;strokeColor=#6c8ebf;" parent="1" vertex="1">
          <mxGeometry x="450" y="720" width="120" height="80" as="geometry" />
        </mxCell>
        <mxCell id="sksLSkYZdCt6uy0x5Zyz-58" value="Tra Cứu Sinh Viên" style="ellipse;whiteSpace=wrap;html=1;fillColor=#dae8fc;strokeColor=#6c8ebf;" parent="1" vertex="1">
          <mxGeometry x="540" y="820" width="120" height="80" as="geometry" />
        </mxCell>
        <mxCell id="sksLSkYZdCt6uy0x5Zyz-61" value="" style="endArrow=classic;dashed=1;html=1;rounded=0;exitX=1;exitY=0;exitDx=0;exitDy=0;endFill=1;" parent="1" source="sksLSkYZdCt6uy0x5Zyz-58" target="sksLSkYZdCt6uy0x5Zyz-44" edge="1">
          <mxGeometry width="50" height="50" relative="1" as="geometry">
            <mxPoint x="535" y="770" as="sourcePoint" />
            <mxPoint x="708" y="748" as="targetPoint" />
          </mxGeometry>
        </mxCell>
        <mxCell id="sksLSkYZdCt6uy0x5Zyz-62" value="&amp;lt;&amp;lt;extend&amp;gt;&amp;gt;" style="edgeLabel;html=1;align=center;verticalAlign=middle;resizable=0;points=[];" parent="sksLSkYZdCt6uy0x5Zyz-61" vertex="1" connectable="0">
          <mxGeometry x="-0.2496" y="-2" relative="1" as="geometry">
            <mxPoint as="offset" />
          </mxGeometry>
        </mxCell>
        <mxCell id="sksLSkYZdCt6uy0x5Zyz-63" value="" style="endArrow=classic;dashed=1;html=1;rounded=0;entryX=0.333;entryY=0.986;entryDx=0;entryDy=0;exitX=0.5;exitY=0;exitDx=0;exitDy=0;endFill=1;entryPerimeter=0;" parent="1" source="sksLSkYZdCt6uy0x5Zyz-18" target="sksLSkYZdCt6uy0x5Zyz-44" edge="1">
          <mxGeometry width="50" height="50" relative="1" as="geometry">
            <mxPoint x="545" y="780" as="sourcePoint" />
            <mxPoint x="718" y="758" as="targetPoint" />
          </mxGeometry>
        </mxCell>
        <mxCell id="sksLSkYZdCt6uy0x5Zyz-64" value="&amp;lt;&amp;lt;extend&amp;gt;&amp;gt;" style="edgeLabel;html=1;align=center;verticalAlign=middle;resizable=0;points=[];" parent="sksLSkYZdCt6uy0x5Zyz-63" vertex="1" connectable="0">
          <mxGeometry x="-0.2496" y="-2" relative="1" as="geometry">
            <mxPoint as="offset" />
          </mxGeometry>
        </mxCell>
        <mxCell id="h6DuWS3GwrsmeHiTVJK8-1" value="Đăng Ký" style="ellipse;whiteSpace=wrap;html=1;fillColor=#dae8fc;strokeColor=#6c8ebf;" vertex="1" parent="1">
          <mxGeometry x="160" y="110" width="120" height="80" as="geometry" />
        </mxCell>
        <mxCell id="h6DuWS3GwrsmeHiTVJK8-2" value="" style="endArrow=classic;html=1;rounded=0;exitX=1;exitY=0.3333333333333333;exitDx=0;exitDy=0;exitPerimeter=0;" edge="1" parent="1" source="sksLSkYZdCt6uy0x5Zyz-1" target="h6DuWS3GwrsmeHiTVJK8-1">
          <mxGeometry width="50" height="50" relative="1" as="geometry">
            <mxPoint x="250" y="400" as="sourcePoint" />
            <mxPoint x="300" y="350" as="targetPoint" />
          </mxGeometry>
        </mxCell>
        <mxCell id="h6DuWS3GwrsmeHiTVJK8-3" value="" style="endArrow=classic;html=1;rounded=0;exitX=0.5;exitY=0;exitDx=0;exitDy=0;exitPerimeter=0;entryX=0;entryY=1;entryDx=0;entryDy=0;" edge="1" parent="1" source="sksLSkYZdCt6uy0x5Zyz-2" target="h6DuWS3GwrsmeHiTVJK8-1">
          <mxGeometry width="50" height="50" relative="1" as="geometry">
            <mxPoint x="250" y="470" as="sourcePoint" />
            <mxPoint x="170" y="180" as="targetPoint" />
          </mxGeometry>
        </mxCell>
      </root>
    </mxGraphModel>
  </diagram>
</mxfile>
